<?xml version="1.0" encoding="utf-8"?>
<svg data-name="Layer 1" width="965.9983" height="727.77798" viewBox="0 0 965.9983 727.77798" xmlns="http://www.w3.org/2000/svg">
  <path d="M 654.247 172.947 L 650.248 172.947 L 650.248 63.402 C 650.248 28.386 621.863 0 586.847 0 L 354.76 0 C 319.744 0 291.358 28.386 291.358 63.402 L 291.358 664.376 C 291.358 699.392 319.744 727.778 354.76 727.778 L 586.846 727.778 C 621.862 727.778 650.248 699.392 650.248 664.376 L 650.248 250.924 L 654.247 250.924 L 654.247 172.947 Z" fill="#3f3d56"/>
  <path d="M 589.405 16.495 L 559.11 16.495 C 565.144 31.29 554.261 47.484 538.283 47.486 L 405.323 47.486 C 389.344 47.484 378.461 31.29 384.496 16.495 L 356.2 16.495 C 330.051 16.495 308.853 37.693 308.853 63.843 L 308.853 663.935 C 308.853 690.085 330.051 711.283 356.2 711.283 L 589.405 711.283 C 615.554 711.283 636.753 690.085 636.753 663.935 L 636.753 63.843 C 636.753 37.693 615.554 16.495 589.405 16.495 Z" fill="#fff"/>
  <polygon points="797.225 99.868 500.224 99.868 500.224 197.368 511.475 197.368 511.475 222.869 536.974 197.368 797.225 197.368 797.225 99.868" style="fill: rgb(34, 197, 94);"/>
  <rect x="533.281" y="132.885" width="135.054" height="4.099" fill="#fff" style=""/>
  <rect x="533.281" y="147.064" width="235.388" height="4.099" fill="#fff" style=""/>
  <rect x="533.281" y="161.242" width="235.157" height="4.099" fill="#fff" style=""/>
  <polygon points="734.724 507.452 485.832 507.452 485.832 589.159 495.26 589.159 495.26 610.528 516.629 589.159 734.724 589.159 734.724 507.452" style="fill: rgb(34, 197, 94);"/>
  <rect x="513.533" y="535.121" width="113.177" height="3.435" fill="#fff" style=""/>
  <rect x="513.533" y="547.003" width="197.259" height="3.435" fill="#fff" style=""/>
  <rect x="513.533" y="558.884" width="197.066" height="3.435" fill="#fff" style=""/>
  <polygon points="168.774 308.023 425.623 308.023 425.623 392.344 415.894 392.344 415.894 414.396 393.842 392.344 168.774 392.344 168.774 308.023" style="fill: rgb(34, 197, 94);"/>
  <rect x="195.416" y="335.929" width="116.795" height="3.544" fill="#fff" style=""/>
  <rect x="195.416" y="348.191" width="203.564" height="3.544" fill="#fff" style=""/>
  <rect x="195.416" y="360.452" width="203.365" height="3.544" fill="#fff" style=""/>
</svg>