<?xml version="1.0" encoding="utf-8"?>
<svg data-name="Layer 1" width="863.91732" height="364.20537" viewBox="0 0 863.91732 364.20537" xmlns="http://www.w3.org/2000/svg">
  <path d="M 295.376 351.069 C 295.376 351.069 296.863 319.911 327.348 323.532" fill="#f0f0f0"/>
  <circle cx="286.763" cy="306.161" r="15.257" fill="#f0f0f0"/>
  <rect x="284.28" y="331.853" width="4.307" height="30.147" fill="#f0f0f0"/>
  <circle cx="438.274" cy="180.073" r="123.297" fill="#3f3d56"/>
  <path d="M 360.652 189.971 C 373.694 174.357 397.69 174.357 410.733 189.971 C 430.925 170.695 422.678 136.788 395.888 128.94 C 369.098 121.091 343.858 145.186 350.456 172.311 C 351.96 178.496 355.066 184.177 359.462 188.781 C 359.849 189.187 360.246 189.583 360.652 189.971 Z" fill="#fff"/>
  <path d="M 458.564 189.971 C 471.606 174.357 495.602 174.357 508.645 189.971 C 528.837 170.695 520.59 136.788 493.8 128.94 C 467.01 121.091 441.77 145.186 448.368 172.311 C 449.872 178.496 452.978 184.177 457.374 188.781 C 457.761 189.187 458.158 189.583 458.564 189.971 Z" fill="#fff"/>
  <circle cx="373.321" cy="151.392" r="12.474" fill="#3f3d56"/>
  <circle cx="471.23" cy="151.392" r="12.474" fill="#3f3d56"/>
  <circle cx="349.428" cy="210.898" r="14.505" fill="#ffffff"/>
  <circle cx="516.241" cy="210.898" r="14.505" fill="#ffffff"/>
  <polygon points="432.835 181.886 421.956 229.029 440.087 210.898 432.835 181.886" fill="#ffffff"/>
  <polygon points="488.735 363.205 476.383 352.839 476.671 363.205 472.835 363.205 472.528 352.244 455.852 363.205 448.871 363.205 472.404 347.737 471.492 315.258 470.811 290.728 474.638 290.623 475.329 315.258 476.239 347.708 494.699 363.205 488.735 363.205" fill="#3f3d56"/>
  <polygon points="430.708 363.205 418.357 352.839 418.645 363.205 414.819 363.205 414.512 352.244 397.835 363.205 390.854 363.205 414.378 347.737 413.467 315.258 412.786 290.728 416.621 290.623 417.312 315.258 418.213 347.708 436.673 363.205 430.708 363.205" fill="#3f3d56"/>
  <path d="M 440.088 47.711 C 436.704 47.711 433.72 50.339 431.725 54.375 C 429.966 48.306 426.271 44.084 421.956 44.084 C 421.662 44.114 421.372 44.163 421.085 44.231 C 419.426 37.75 415.571 33.205 411.077 33.205 C 405.068 33.205 400.198 41.323 400.198 51.337 C 400.198 61.351 405.068 69.469 411.077 69.469 C 411.37 69.44 411.661 69.391 411.948 69.323 C 413.606 75.803 417.461 80.348 421.956 80.348 C 425.339 80.348 428.323 77.72 430.319 73.684 C 432.077 79.753 435.772 83.975 440.088 83.975 C 446.096 83.975 450.967 75.857 450.967 65.843 C 450.967 55.829 446.096 47.711 440.088 47.711 Z" fill="#3f3d56"/>
  <path d="M 322.027 183.91 L 254.106 172.893 C 250.684 172.338 247.199 171.782 243.765 172.265 C 240.331 172.748 236.894 174.439 235.144 177.432 C 231.782 183.181 235.904 190.413 242.564 190.45 C 243.144 190.453 243.724 190.398 244.294 190.285 C 240.586 190.165 236.69 190.085 233.4 191.799 C 230.11 193.512 227.78 197.674 229.384 201.019 C 229.866 201.942 230.517 202.766 231.303 203.448 C 236.356 207.977 243.563 209.199 249.826 206.589 C 247.326 210.175 242.364 210.707 238.072 211.538 C 233.78 212.368 228.819 214.796 228.659 219.164 C 228.48 224.073 234.322 226.682 239.131 227.681 C 264.811 232.965 291.466 230.792 315.952 221.42 C 318.703 220.473 321.308 219.143 323.689 217.469 C 334.376 209.354 332.27 192.712 319.898 187.514 C 318.846 187.072 317.753 186.734 316.635 186.506" fill="#3f3d56"/>
  <path d="M 615.194 239.582 C 603.984 215.881 586.228 195.882 564.021 181.945 C 561.61 180.315 558.982 179.032 556.214 178.135 C 543.304 174.471 531.268 186.156 534.55 199.168 C 534.829 200.274 535.216 201.351 535.705 202.382 L 530.39 199.632 C 541.061 219.935 551.732 240.237 562.404 260.539 C 564.017 263.609 565.667 266.728 568.117 269.182 C 570.566 271.636 573.983 273.367 577.427 272.968 C 583.326 272.305 586.797 266.008 584.206 260.668 C 585.704 262.779 587.674 264.511 589.958 265.727 C 593.305 267.327 598.032 266.688 599.741 263.396 C 600.189 262.456 600.457 261.441 600.529 260.402 C 601.112 253.641 597.758 247.147 591.908 243.71 C 596.276 243.553 599.684 247.199 602.927 250.13 C 606.17 253.061 611.092 255.568 614.68 253.07 C 618.711 250.263 617.285 244.026 615.194 239.582 Z" fill="#3f3d56"/>
  <path d="M 634.262 364.205 L 253.262 364.205 C 252.492 364.205 252.011 363.372 252.396 362.705 C 252.575 362.396 252.905 362.205 253.262 362.205 L 634.262 362.205 C 635.032 362.205 635.513 363.039 635.128 363.705 C 634.95 364.015 634.62 364.205 634.262 364.205 Z" fill="#cacaca"/>
</svg>